<svg width="4159" height="1702" xmlns="http://www.w3.org/2000/svg" xmlns:xlink="http://www.w3.org/1999/xlink" overflow="hidden"><defs><clipPath id="clip0"><rect x="40" y="17" width="4159" height="1702"/></clipPath><linearGradient x1="2237" y1="624" x2="2026" y2="624" gradientUnits="userSpaceOnUse" spreadMethod="reflect" id="fill1"><stop offset="0" stop-color="#B5D5A7"/><stop offset="0.5" stop-color="#AACE99"/><stop offset="1" stop-color="#9CCA86"/></linearGradient><linearGradient x1="2131" y1="17.9999" x2="2131" y2="547" gradientUnits="userSpaceOnUse" spreadMethod="reflect" id="fill2"><stop offset="0" stop-color="#B5D5A7"/><stop offset="0.5" stop-color="#AACE99"/><stop offset="1" stop-color="#9CCA86"/></linearGradient><clipPath id="clip3"><rect x="1829" y="187" width="260" height="237"/></clipPath><clipPath id="clip4"><rect x="1829" y="187" width="260" height="237"/></clipPath><clipPath id="clip5"><rect x="1818" y="167" width="283" height="283"/></clipPath><clipPath id="clip6"><rect x="2843" y="93" width="155" height="155"/></clipPath><clipPath id="clip7"><rect x="2843" y="93" width="155" height="155"/></clipPath><clipPath id="clip8"><rect x="2843" y="93" width="155" height="155"/></clipPath><clipPath id="clip9"><rect x="2877" y="149" width="156" height="156"/></clipPath><clipPath id="clip10"><rect x="2877" y="149" width="156" height="156"/></clipPath><clipPath id="clip11"><rect x="2877" y="149" width="156" height="156"/></clipPath><clipPath id="clip12"><rect x="2938" y="63" width="156" height="156"/></clipPath><clipPath id="clip13"><rect x="2938" y="63" width="156" height="156"/></clipPath><clipPath id="clip14"><rect x="2938" y="63" width="156" height="156"/></clipPath><clipPath id="clip15"><rect x="2971" y="125" width="156" height="156"/></clipPath><clipPath id="clip16"><rect x="2971" y="125" width="156" height="156"/></clipPath><clipPath id="clip17"><rect x="2971" y="125" width="156" height="156"/></clipPath><linearGradient x1="2131" y1="714" x2="2131" y2="836" gradientUnits="userSpaceOnUse" spreadMethod="reflect" id="fill18"><stop offset="0" stop-color="#B5D5A7"/><stop offset="0.5" stop-color="#AACE99"/><stop offset="1" stop-color="#9CCA86"/></linearGradient><linearGradient x1="1193.5" y1="953" x2="1193.5" y2="1164" gradientUnits="userSpaceOnUse" spreadMethod="reflect" id="fill19"><stop offset="0" stop-color="#FFDD9C"/><stop offset="0.5" stop-color="#FFD78E"/><stop offset="1" stop-color="#FFD479"/></linearGradient><linearGradient x1="588" y1="799" x2="588" y2="1318" gradientUnits="userSpaceOnUse" spreadMethod="reflect" id="fill20"><stop offset="0" stop-color="#FFDD9C"/><stop offset="0.5" stop-color="#FFD78E"/><stop offset="1" stop-color="#FFD479"/></linearGradient><clipPath id="clip21"><rect x="794" y="973" width="260" height="203"/></clipPath><clipPath id="clip22"><rect x="794" y="973" width="260" height="203"/></clipPath><clipPath id="clip23"><rect x="768" y="923" width="299" height="298"/></clipPath><linearGradient x1="1643.5" y1="997" x2="1643.5" y2="1119" gradientUnits="userSpaceOnUse" spreadMethod="reflect" id="fill24"><stop offset="0" stop-color="#FFDD9C"/><stop offset="0.5" stop-color="#FFD78E"/><stop offset="1" stop-color="#FFD479"/></linearGradient><linearGradient x1="2608" y1="991" x2="2608" y2="1113" gradientUnits="userSpaceOnUse" spreadMethod="reflect" id="fill25"><stop offset="0" stop-color="#F7BDA4"/><stop offset="0.5" stop-color="#F5B195"/><stop offset="1" stop-color="#F8A581"/></linearGradient><linearGradient x1="3059.5" y1="1164" x2="3059.5" y2="953" gradientUnits="userSpaceOnUse" spreadMethod="reflect" id="fill26"><stop offset="0" stop-color="#F7BDA4"/><stop offset="0.5" stop-color="#F5B195"/><stop offset="1" stop-color="#F8A581"/></linearGradient><linearGradient x1="3676" y1="871" x2="3676" y2="1246" gradientUnits="userSpaceOnUse" spreadMethod="reflect" id="fill27"><stop offset="0" stop-color="#F7BDA4"/><stop offset="0.5" stop-color="#F5B195"/><stop offset="1" stop-color="#F8A581"/></linearGradient><clipPath id="clip28"><rect x="3905" y="964" width="260" height="204"/></clipPath><clipPath id="clip29"><rect x="3905" y="964" width="260" height="204"/></clipPath><clipPath id="clip30"><rect x="3879" y="914" width="299" height="298"/></clipPath><clipPath id="clip31"><rect x="453" y="525" width="195" height="196"/></clipPath><clipPath id="clip32"><rect x="453" y="525" width="195" height="196"/></clipPath><clipPath id="clip33"><rect x="453" y="525" width="195" height="196"/></clipPath><clipPath id="clip34"><rect x="1342" y="1523" width="222" height="197"/></clipPath><clipPath id="clip35"><rect x="1342" y="1523" width="222" height="197"/></clipPath><clipPath id="clip36"><rect x="1328" y="1495" width="252" height="252"/></clipPath></defs><g clip-path="url(#clip0)" transform="translate(-40 -17)"><path d="M2184.25 535 2184.25 624 2237 624 2131.5 713 2026 624 2078.75 624 2078.75 535Z" stroke="#70AD47" stroke-width="2.29167" stroke-miterlimit="8" fill="url(#fill1)" fill-rule="evenodd"/><path d="M1088 106.169C1088 57.4746 1127.47 17.9999 1176.17 17.9999L3085.83 17.9999C3134.53 17.9999 3174 57.4746 3174 106.169L3174 458.831C3174 507.525 3134.53 547 3085.83 547L1176.17 547C1127.47 547 1088 507.525 1088 458.831Z" stroke="#70AD47" stroke-width="2.29167" stroke-miterlimit="8" fill="url(#fill2)" fill-rule="evenodd"/><path d="M1132.5 136.335C1132.5 96.6619 1164.66 64.5001 1204.34 64.5001L2043.66 64.5001C2083.34 64.5001 2115.5 96.6619 2115.5 136.335L2115.5 423.665C2115.5 463.338 2083.34 495.5 2043.66 495.5L1204.34 495.5C1164.66 495.5 1132.5 463.338 1132.5 423.665Z" stroke="#000000" stroke-width="3.4375" stroke-linejoin="round" stroke-miterlimit="10" fill="none" fill-rule="evenodd"/><text font-family="Arial,Arial_MSFontService,sans-serif" font-weight="400" font-size="73" transform="matrix(1 0 0 1 1185.93 173)">Spatial <tspan font-size="73" x="244.062" y="0">environment</tspan><tspan font-size="55" x="0" y="70">-</tspan><tspan font-size="55" x="33.802" y="70">Landscape</tspan><tspan font-size="55" x="316.823" y="70">composition</tspan><tspan font-size="55" x="0" y="136">-</tspan><tspan font-size="55" x="30.9375" y="136">Site </tspan><tspan font-size="55" x="140.938" y="136">availability</tspan><tspan font-size="55" x="0" y="202">-</tspan><tspan font-size="55" x="30.9375" y="202">Predation</tspan><tspan font-size="55" x="0" y="268">-</tspan><tspan font-size="55" x="30.9375" y="268">Familiarity</tspan></text><g clip-path="url(#clip3)"><g clip-path="url(#clip4)"><g clip-path="url(#clip5)"><path d="M228.684 218.913 228.684 195.44 263.159 198.374 240.156 162.989 254.24 166.774 237.662 141.482 247.902 142.773 223.549 107.359 211.05 125.609 186.169 87.4655 202.071 89.4607 164.31 33.6835 126.548 89.4313 142.451 87.4362 116.601 127.105 138.46 121.237 102.693 176.809 155.507 166.862 155.507 202.981C138.137 203.362 121.941 207.147 109.295 215.246 121.032 221.348 133.443 231.823 144.768 249.398L269.937 249.398C260.489 237.398 245.789 226.894 228.684 218.913ZM210.316 126.665 201.749 139.194 190.012 121.149ZM200.868 172.349 183.939 198.374 217.123 195.44 217.123 214.189C202.041 208.489 186.243 204.904 170.178 203.538L170.178 166.862Z" transform="matrix(1.00125 0 0 1 1818.65 167.393)"/><path d="M94.4486 218.473 93.8912 218.473 93.8912 208.321 108.562 211.255 97.8229 191.479 105.628 193.651 96.3852 179.596 102.077 180.3 88.023 161.375 75.1129 180.242 80.7757 179.538 75.7878 187.137 64.7849 169.532 76.8734 172.789 62.5843 151.047 71.3866 152.133 50.4958 121.648 29.6051 152.074 38.4074 150.989 24.1183 172.73 36.2068 169.474 16.431 199.93 44.0115 196.585 44.0115 225.926C31.7889 231.508 20.8131 239.49 11.7364 249.398L134.147 249.398C120.856 230.767 106.478 222.199 94.4486 218.473ZM52.8138 222.493 52.8138 196.585 75.8465 199.225 70.4184 211.255 85.0889 208.321 85.0889 217.74C74.1362 217.436 63.2143 219.045 52.8138 222.493Z" transform="matrix(1.00125 0 0 1 1818.65 167.393)"/></g></g></g><path d="M2143.5 136.169C2143.5 96.5872 2175.59 64.5001 2215.17 64.5001L3054.83 64.5001C3094.41 64.5001 3126.5 96.5872 3126.5 136.169L3126.5 422.832C3126.5 462.413 3094.41 494.5 3054.83 494.5L2215.17 494.5C2175.59 494.5 2143.5 462.413 2143.5 422.832Z" stroke="#000000" stroke-width="3.4375" stroke-linejoin="round" stroke-miterlimit="10" fill="none" fill-rule="evenodd"/><text font-family="Arial,Arial_MSFontService,sans-serif" font-weight="400" font-size="73" transform="matrix(1 0 0 1 2197.11 172)">Social <tspan font-size="73" x="219.427" y="0">environment</tspan><tspan font-size="55" x="0" y="70">-</tspan><tspan font-size="55" x="33.802" y="70">Conspecific</tspan><tspan font-size="55" x="332.292" y="70">density</tspan><tspan font-size="55" x="0" y="136">-</tspan><tspan font-size="55" x="33.802" y="136">Conspecific</tspan><tspan font-size="55" x="332.292" y="136">breeding</tspan><tspan font-size="55" x="560.313" y="136">success</tspan><tspan font-size="55" x="0" y="202">-</tspan><tspan font-size="55" x="33.802" y="202">Offspring</tspan><tspan font-size="55" x="272.136" y="202">quality</tspan><tspan font-size="55" x="0" y="268">-</tspan><tspan font-size="55" x="33.802" y="268">Intra</tspan><tspan font-size="55" x="143.802" y="268">-</tspan><tspan font-size="55" x="162.136" y="268">specific</tspan><tspan font-size="55" x="360.365" y="268">competition</tspan></text><g clip-path="url(#clip6)"><g clip-path="url(#clip7)"><g clip-path="url(#clip8)"><path d="M2986.05 149.107 2961.28 149.882C2959.49 148.461 2955.84 146.507 2949.56 146.653 2941.15 146.911 2937.16 152.901 2929.51 159.698 2923.21 145.539 2911.56 130.022 2901.12 121.74 2900.07 120.909 2898.53 121.095 2897.7 122.154 2897.39 122.554 2897.21 123.041 2897.19 123.548 2897.15 130.68 2897.93 137.793 2899.51 144.747 2909.2 150.592 2918 157.664 2922.97 164.978 2922.11 165.576 2921.19 166.173 2920.24 166.754 2910.67 153.046 2885.25 138.531 2867.59 134.866 2866.27 134.599 2864.98 135.452 2864.72 136.771 2864.62 137.254 2864.67 137.755 2864.86 138.208 2869.85 149.317 2884.56 167.884 2898.28 178.315L2858.34 218.066C2857.81 218.654 2857.85 219.562 2858.44 220.095 2858.85 220.469 2859.44 220.571 2859.95 220.358 2871.38 214.32 2891.52 204.842 2907.76 203.244 2938.97 200.176 2956.2 181.35 2962.09 154.177L2986.12 149.898C2986.33 149.84 2986.46 149.618 2986.4 149.403 2986.36 149.241 2986.22 149.124 2986.05 149.107Z"/></g></g></g><g clip-path="url(#clip9)"><g clip-path="url(#clip10)"><g clip-path="url(#clip11)"><path d="M3021.05 206.107 2996.28 206.882C2994.49 205.461 2990.84 203.507 2984.56 203.652 2976.15 203.911 2972.16 209.901 2964.51 216.698 2958.21 202.538 2946.55 187.022 2936.12 178.739 2935.07 177.909 2933.53 178.094 2932.7 179.154 2932.39 179.554 2932.21 180.041 2932.19 180.548 2932.15 187.68 2932.93 194.793 2934.51 201.747 2944.2 207.592 2953 214.664 2957.97 221.978 2957.11 222.575 2956.19 223.173 2955.24 223.754 2945.67 210.046 2920.25 195.531 2902.59 191.866 2901.27 191.598 2899.98 192.451 2899.72 193.771 2899.62 194.254 2899.67 194.755 2899.86 195.208 2904.85 206.317 2919.56 224.884 2933.28 235.314L2893.34 275.066C2892.81 275.654 2892.85 276.562 2893.44 277.095 2893.85 277.469 2894.44 277.571 2894.95 277.358 2906.38 271.32 2926.52 261.842 2942.76 260.244 2973.97 257.176 2991.2 238.35 2997.09 211.176L3021.12 206.898C3021.33 206.84 3021.46 206.618 3021.4 206.403 3021.36 206.241 3021.22 206.124 3021.05 206.107Z"/></g></g></g><g clip-path="url(#clip12)"><g clip-path="url(#clip13)"><g clip-path="url(#clip14)"><path d="M3081.05 120.107 3056.28 120.882C3054.49 119.461 3050.84 117.507 3044.56 117.653 3036.15 117.911 3032.16 123.901 3024.51 130.698 3018.21 116.538 3006.56 101.022 2996.12 92.7395 2995.07 91.9088 2993.53 92.0945 2992.7 93.1543 2992.39 93.5536 2992.21 94.0409 2992.19 94.5479 2992.15 101.68 2992.93 108.793 2994.51 115.747 3004.2 121.592 3013 128.664 3017.97 135.978 3017.11 136.575 3016.19 137.173 3015.24 137.754 3005.67 124.046 2980.25 109.531 2962.59 105.866 2961.27 105.599 2959.98 106.451 2959.72 107.771 2959.62 108.254 2959.67 108.755 2959.86 109.208 2964.85 120.317 2979.56 138.884 2993.28 149.315L2953.34 189.066C2952.81 189.654 2952.85 190.562 2953.44 191.095 2953.85 191.469 2954.44 191.571 2954.95 191.358 2966.38 185.32 2986.52 175.842 3002.76 174.244 3033.97 171.176 3051.2 152.35 3057.09 125.177L3081.12 120.898C3081.33 120.84 3081.46 120.618 3081.4 120.403 3081.36 120.241 3081.22 120.124 3081.05 120.107Z"/></g></g></g><g clip-path="url(#clip15)"><g clip-path="url(#clip16)"><g clip-path="url(#clip17)"><path d="M3114.05 181.107 3089.28 181.882C3087.49 180.461 3083.84 178.507 3077.56 178.653 3069.15 178.911 3065.16 184.901 3057.51 191.699 3051.21 177.539 3039.56 162.023 3029.12 153.74 3028.07 152.909 3026.53 153.095 3025.7 154.155 3025.39 154.554 3025.21 155.041 3025.19 155.548 3025.15 162.68 3025.93 169.793 3027.51 176.748 3037.2 182.592 3046 189.664 3050.97 196.978 3050.11 197.576 3049.19 198.173 3048.24 198.754 3038.67 185.046 3013.25 170.531 2995.59 166.866 2994.27 166.599 2992.98 167.452 2992.72 168.771 2992.62 169.254 2992.67 169.755 2992.86 170.208 2997.85 181.317 3012.56 199.885 3026.28 210.315L2986.34 250.066C2985.81 250.654 2985.85 251.562 2986.44 252.095 2986.85 252.469 2987.44 252.571 2987.95 252.358 2999.38 246.32 3019.52 236.842 3035.76 235.244 3066.97 232.176 3084.2 213.35 3090.09 186.177L3114.12 181.898C3114.33 181.84 3114.46 181.618 3114.4 181.403 3114.36 181.242 3114.22 181.124 3114.05 181.107Z"/></g></g></g><path d="M1.69757-2.98909 453.839 253.792 450.444 259.77-1.69757 2.98909ZM454.946 242.561 472.069 268.098 441.366 266.474Z" transform="matrix(-1 0 0 1 2115.57 729.5)"/><path d="M0.0627983-3.43693 239.015 0.929132 238.89 7.80299-0.0627983 3.43693ZM234.621-9.46538 261.865 4.78471 234.119 18.03Z" transform="matrix(1 0 0 -1 1996.5 1058.28)"/><path d="M1644.94 1116.38 2123.89 1337.38 2121.01 1343.62 1642.06 1122.62ZM2124.05 1326.1 2143.26 1350.1 2112.53 1351.07Z"/><path d="M1.54163-3.07242 239.665 116.41 236.582 122.554-1.54163 3.07242ZM240.194 105.137 258.606 129.76 227.861 129.716Z" transform="matrix(-1 0 0 1 2387.11 1411.5)"/><path d="M2329.17 831.497 2590.37 977.048 2587.03 983.054 2325.83 837.503ZM2591.39 965.809 2608.72 991.206 2578 989.831Z"/><path d="M2.89779-1.84912 102.935 154.921 97.1397 158.62-2.89779 1.84912ZM109.163 145.51 112.365 176.089 85.9808 160.303Z" transform="matrix(-1 0 0 1 2608.86 1113.5)"/><rect x="1837.5" y="1541.5" width="581" height="122" stroke="#000000" stroke-width="3.4375" stroke-linejoin="round" stroke-miterlimit="10" fill="#FFFFFF"/><text font-family="Arial,Arial_MSFontService,sans-serif" font-weight="400" font-size="73" transform="matrix(1 0 0 1 1874.6 1628)">Movement<tspan font-size="73" x="363.229" y="0">path</tspan></text><rect x="1797" y="714" width="668" height="122" stroke="#70AD47" stroke-width="2.29167" stroke-miterlimit="8" fill="url(#fill18)"/><text font-family="Arial,Arial_MSFontService,sans-serif" font-weight="400" font-size="73" transform="matrix(1 0 0 1 1876.12 802)">External<tspan font-size="73" x="289.323" y="0">factors</tspan></text><path d="M1099 1005.75 1193.5 1005.75 1193.5 953 1288 1058.5 1193.5 1164 1193.5 1111.25 1099 1111.25Z" stroke="#FFC000" stroke-width="2.29167" stroke-miterlimit="8" fill="url(#fill19)" fill-rule="evenodd"/><path d="M66 885.502C66 837.728 104.728 799 152.502 799L1023.5 799C1071.27 799 1110 837.728 1110 885.502L1110 1231.5C1110 1279.27 1071.27 1318 1023.5 1318L152.502 1318C104.728 1318 66 1279.27 66 1231.5Z" stroke="#FFC000" stroke-width="2.29167" stroke-miterlimit="8" fill="url(#fill20)" fill-rule="evenodd"/><path d="M96.5001 915.335C96.5001 875.662 128.662 843.5 168.335 843.5L1008.66 843.5C1048.34 843.5 1080.5 875.662 1080.5 915.335L1080.5 1202.67C1080.5 1242.34 1048.34 1274.5 1008.66 1274.5L168.335 1274.5C128.662 1274.5 96.5001 1242.34 96.5001 1202.67Z" stroke="#000000" stroke-width="3.4375" stroke-linejoin="round" stroke-miterlimit="10" fill="none" fill-rule="evenodd"/><text font-family="Arial,Arial_MSFontService,sans-serif" font-weight="400" font-size="73" transform="matrix(1 0 0 1 150.486 952)">Individual<tspan font-size="73" x="329.427" y="0">features</tspan><tspan font-size="55" x="0" y="70">-</tspan><tspan font-size="55" x="33.8021" y="70">Sex</tspan><tspan font-size="55" x="0" y="136">-</tspan><tspan font-size="55" x="33.8021" y="136">Breeding</tspan><tspan font-size="55" x="252.656" y="136">/social </tspan><tspan font-size="55" x="423.385" y="136">status</tspan><tspan font-size="55" x="0" y="202">-</tspan><tspan font-size="55" x="33.8021" y="202">Body condition</tspan><tspan font-size="55" x="0" y="268">-</tspan><tspan font-size="55" x="33.8021" y="268">Personality</tspan></text><g clip-path="url(#clip21)"><g clip-path="url(#clip22)"><g clip-path="url(#clip23)"><path d="M274.358 107.607 226.857 109.093C223.419 106.368 216.421 102.621 204.375 102.9 188.242 103.395 180.593 114.884 165.916 127.92 153.839 100.763 131.481 71.005 111.477 55.1194 109.445 53.5262 106.506 53.8823 104.913 55.9149 104.312 56.6807 103.966 57.6153 103.922 58.5876 103.85 72.2662 105.346 85.9079 108.381 99.2459 126.96 110.456 143.837 124.019 153.374 138.046 151.733 139.192 149.968 140.338 148.141 141.453 129.778 115.162 81.0379 87.324 47.1612 80.2947 44.6303 79.7816 42.1626 81.4173 41.6492 83.9481 41.4616 84.874 41.5588 85.8352 41.9279 86.7047 51.4964 108.009 79.7064 143.62 106.027 163.624L29.4177 239.862C28.3954 240.99 28.4808 242.733 29.6085 243.755 30.3981 244.471 31.5295 244.667 32.5143 244.26 54.4382 232.678 93.0527 214.501 124.204 211.436 184.062 205.552 217.102 169.446 228.405 117.33L274.482 109.124C274.895 109.012 275.139 108.587 275.027 108.174 274.943 107.865 274.677 107.639 274.358 107.607Z" transform="matrix(1.00006 0 0 1 768.748 923.618)"/></g></g></g><rect x="1291" y="997" width="705" height="122" stroke="#FFC000" stroke-width="2.29167" stroke-miterlimit="8" fill="url(#fill24)"/><text font-family="Arial,Arial_MSFontService,sans-serif" font-weight="400" font-size="73" transform="matrix(1 0 0 1 1431.09 1085)">Internal<tspan font-size="73" x="265.261" y="0">state</tspan></text><rect x="2143.5" y="1289.5" width="705" height="122" stroke="#000000" stroke-width="3.4375" stroke-linejoin="round" stroke-miterlimit="10" fill="#FFFFFF"/><text font-family="Arial,Arial_MSFontService,sans-serif" font-weight="400" font-size="73" transform="matrix(1 0 0 1 2241.01 1376)">Motion <tspan font-size="73" x="240.625" y="0">capacity</tspan></text><rect x="2255" y="991" width="706" height="122" stroke="#ED7D31" stroke-width="2.29167" stroke-miterlimit="8" fill="url(#fill25)"/><text font-family="Arial,Arial_MSFontService,sans-serif" font-weight="400" font-size="73" transform="matrix(1 0 0 1 2290.64 1078)">Navigation <tspan font-size="73" x="366.094" y="0">capacity</tspan></text><path d="M3154 1111.25 3059.5 1111.25 3059.5 1164 2965 1058.5 3059.5 953 3059.5 1005.75 3154 1005.75Z" stroke="#ED7D31" stroke-width="2.29167" stroke-miterlimit="8" fill="url(#fill26)" fill-rule="evenodd"/><path d="M3154 933.501C3154 898.983 3181.98 871 3216.5 871L4135.5 871C4170.02 871 4198 898.983 4198 933.501L4198 1183.5C4198 1218.02 4170.02 1246 4135.5 1246L3216.5 1246C3181.98 1246 3154 1218.02 3154 1183.5Z" stroke="#ED7D31" stroke-width="2.29167" stroke-miterlimit="8" fill="url(#fill27)" fill-rule="evenodd"/><path d="M3184.5 964.668C3184.5 938.618 3205.62 917.5 3231.67 917.5L4120.33 917.5C4146.38 917.5 4167.5 938.618 4167.5 964.668L4167.5 1153.33C4167.5 1179.38 4146.38 1200.5 4120.33 1200.5L3231.67 1200.5C3205.62 1200.5 3184.5 1179.38 3184.5 1153.33Z" stroke="#000000" stroke-width="3.4375" stroke-linejoin="round" stroke-miterlimit="10" fill="none" fill-rule="evenodd"/><text font-family="Arial,Arial_MSFontService,sans-serif" font-weight="400" font-size="73" transform="matrix(1 0 0 1 3231.09 1018)">Individual<tspan font-size="73" x="329.427" y="0">decisions</tspan><tspan font-size="55" x="0" y="71">-</tspan><tspan font-size="55" x="33.802" y="71">Where</tspan><tspan font-size="55" x="210.833" y="71">to move?</tspan><tspan font-size="55" x="0" y="137">-</tspan><tspan font-size="55" x="33.802" y="137">How to move?</tspan></text><g clip-path="url(#clip28)"><g clip-path="url(#clip29)"><g clip-path="url(#clip30)"><path d="M274.358 107.607 226.857 109.093C223.419 106.368 216.421 102.621 204.375 102.9 188.242 103.395 180.593 114.884 165.916 127.92 153.839 100.763 131.481 71.005 111.477 55.1194 109.445 53.5262 106.506 53.8823 104.913 55.9149 104.312 56.6807 103.966 57.6153 103.922 58.5876 103.85 72.2662 105.346 85.9079 108.381 99.2459 126.96 110.456 143.837 124.019 153.374 138.046 151.733 139.192 149.968 140.338 148.141 141.453 129.778 115.162 81.0379 87.324 47.1612 80.2947 44.6303 79.7816 42.1626 81.4173 41.6492 83.9481 41.4616 84.874 41.5588 85.8352 41.9279 86.7047 51.4964 108.009 79.7064 143.62 106.027 163.624L29.4177 239.862C28.3954 240.99 28.4808 242.733 29.6085 243.755 30.3981 244.471 31.5295 244.667 32.5143 244.26 54.4382 232.678 93.0527 214.501 124.204 211.436 184.062 205.552 217.102 169.446 228.405 117.33L274.482 109.124C274.895 109.012 275.139 108.587 275.027 108.174 274.943 107.865 274.677 107.639 274.358 107.607Z" transform="matrix(1.00006 0 0 1 3879.75 914.618)"/></g></g></g><path d="M2134.78 835.46 2272.35 1269.06 2265.79 1271.14 2128.22 837.539ZM2280.79 1261.57 2276 1291.94 2254.58 1269.89Z"/><text font-family="Arial,Arial_MSFontService,sans-serif" font-weight="700" font-size="83" transform="matrix(1 0 0 1 1234.82 1499)">TRACKING<tspan font-size="83" x="-1145.2" y="-1098">FIELD OBSERVATIONS</tspan><tspan font-size="83" x="-1015.72" y="-999">+ EXPERIMENTS</tspan></text><g clip-path="url(#clip31)"><g clip-path="url(#clip32)"><g clip-path="url(#clip33)"><path d="M626.672 679.562 601.281 654.172C597.828 650.719 593.156 649.5 588.688 650.312L579.75 641.375C587.672 631.219 592.344 618.219 592.344 604.406 592.344 570.891 564.922 543.469 531.406 543.469 497.891 543.469 470.469 570.891 470.469 604.406 470.469 637.922 497.891 665.344 531.406 665.344 545.219 665.344 558.016 660.672 568.375 652.75L577.312 661.687C576.5 666.156 577.719 670.828 581.172 674.281L606.562 699.672C609.406 702.516 613.062 703.937 616.719 703.937 620.375 703.937 624.031 702.516 626.875 699.672 632.156 693.984 632.156 685.047 626.672 679.562ZM531.203 652.953C504.391 652.953 482.453 631.016 482.453 604.203 482.453 577.391 504.391 555.453 531.203 555.453 558.016 555.453 579.953 577.391 579.953 604.203 579.953 631.016 558.016 652.953 531.203 652.953Z"/></g></g></g><g clip-path="url(#clip34)"><g clip-path="url(#clip35)"><g clip-path="url(#clip36)"><path d="M177.345 78.7621C171.086 78.7621 165.87 73.546 166.131 67.026 166.131 60.7668 171.347 55.5507 177.606 55.5507 183.865 55.5507 189.081 60.7668 189.081 67.026 189.081 70.1556 187.777 73.0244 185.691 75.1108 183.343 77.4581 180.475 78.7621 177.345 78.7621ZM166.131 42.5106C160.393 44.5971 155.959 49.0307 153.09 54.2467 149.439 61.2884 148.918 69.3732 151.786 76.6757L164.305 103.799 172.651 121.012C173.433 122.838 175.259 123.881 177.345 123.881 179.431 123.881 181.257 122.838 182.039 121.012L190.385 103.799 202.904 76.9365C204.208 73.8068 204.729 70.4164 204.729 67.026 204.729 48.7699 185.951 34.9474 166.131 42.5106Z" transform="matrix(1.00079 0 0 1 1328.93 1495.73)"/><path d="M119.969 189.864 78.2405 168.999 78.2405 83.9781 119.969 104.842 119.969 189.864ZM67.8084 168.999 36.5122 184.647 36.5122 99.6262 67.8084 83.9781 67.8084 168.999ZM212.292 81.3701 212.292 81.3701 205.772 95.4534 213.857 99.6262 213.857 184.647 182.561 168.999 182.561 134.313 172.129 134.313 172.129 168.999 130.401 189.864 130.401 104.842 148.918 95.4534 142.398 81.3701 125.185 89.9765 73.0244 63.8964 20.8641 89.9765 20.8641 209.945 73.0244 183.865 125.185 209.945 177.345 183.865 229.505 209.945 229.505 89.9765 212.292 81.3701Z" transform="matrix(1.00079 0 0 1 1328.93 1495.73)"/></g></g></g></g></svg>